HIERARCHY
ROOT Hips
{
	OFFSET 0.000000 0.000000 0.000000
	CHANNELS 6 Xposition Yposition Zposition Xrotation Yrotation Zrotation
	JOINT Thigh.L
	{
		OFFSET 0.054572 0.026929 -0.094178
		CHANNELS 3 Xrotation Yrotation Zrotation
		JOINT Shin.L
		{
			OFFSET 0.059452 0.007292 -0.412298
			CHANNELS 3 Xrotation Yrotation Zrotation
			JOINT Foot.L
			{
				OFFSET -0.041614 0.031588 -0.437873
				CHANNELS 3 Xrotation Yrotation Zrotation
				JOINT Toe.L
				{
					OFFSET 0.047781 -0.126333 -0.064479
					CHANNELS 3 Xrotation Yrotation Zrotation
					End Site
					{
						OFFSET 0.000000 0.050000 0.000000
					}
				}
			}
		}
	}
	JOINT Thigh.R
	{
		OFFSET -0.059675 0.021451 -0.106695
		CHANNELS 3 Xrotation Yrotation Zrotation
		JOINT Shin.R
		{
			OFFSET -0.048560 0.015074 -0.393717
			CHANNELS 3 Xrotation Yrotation Zrotation
			JOINT Foot.R
			{
				OFFSET 0.013956 0.019825 -0.446982
				CHANNELS 3 Xrotation Yrotation Zrotation
				JOINT Toe.R
				{
					OFFSET -0.039383 -0.127185 -0.064318
					CHANNELS 3 Xrotation Yrotation Zrotation
					End Site
					{
						OFFSET 0.000000 0.050000 0.000000
					}
				}
			}
		}
	}
	JOINT Spine
	{
		OFFSET -0.002442 0.027193 0.113042
		CHANNELS 3 Xrotation Yrotation Zrotation
		JOINT Spine.2
		{
			OFFSET 0.008729 0.006384 0.139943
			CHANNELS 3 Xrotation Yrotation Zrotation
			JOINT Chest
			{
				OFFSET -0.010801 -0.022866 0.055652
				CHANNELS 3 Xrotation Yrotation Zrotation
				JOINT Neck
				{
					OFFSET -0.012003 0.026389 0.169679
					CHANNELS 3 Xrotation Yrotation Zrotation
					JOINT Head
					{
						OFFSET 0.025223 -0.020471 0.169652
						CHANNELS 3 Xrotation Yrotation Zrotation
						End Site
						{
							OFFSET 0.000000 0.050000 0.000000
						}
					}
				}
				JOINT Clavicle.L
				{
					OFFSET 0.047391 0.005108 0.087239
					CHANNELS 3 Xrotation Yrotation Zrotation
					JOINT UpperArm.L
					{
						OFFSET 0.126715 0.013353 0.058142
						CHANNELS 3 Xrotation Yrotation Zrotation
						JOINT ForeArm.L
						{
							OFFSET 0.270483 0.042468 -0.075446
							CHANNELS 3 Xrotation Yrotation Zrotation
							JOINT Hand.L
							{
								OFFSET 0.274159 0.001014 0.022073
								CHANNELS 3 Xrotation Yrotation Zrotation
								JOINT Thumb1.L
								{
									OFFSET 0.154612 0.000442 0.009630
									CHANNELS 3 Xrotation Yrotation Zrotation
									JOINT Thumb2.L
									{
										OFFSET 0.029903 0.000111 0.002408
										CHANNELS 3 Xrotation Yrotation Zrotation
										End Site
										{
											OFFSET 0.024919 0.000092 0.002006
										}
									}
								}
								JOINT Index1.L
								{
									OFFSET 0.137612 0.000442 0.009630
									CHANNELS 3 Xrotation Yrotation Zrotation
									JOINT Index2.L
									{
										OFFSET 0.029903 0.000111 0.002408
										CHANNELS 3 Xrotation Yrotation Zrotation
										JOINT Index3.L
										{
											OFFSET 0.021929 0.000081 0.001766
											CHANNELS 3 Xrotation Yrotation Zrotation
											End Site
											{
												OFFSET 0.017942 0.000066 0.001445
											}
										}
									}
								}
								JOINT Middle1.L
								{
									OFFSET 0.119612 0.000442 0.009630
									CHANNELS 3 Xrotation Yrotation Zrotation
									JOINT Middle2.L
									{
										OFFSET 0.030900 0.000114 0.002488
										CHANNELS 3 Xrotation Yrotation Zrotation
										JOINT Middle3.L
										{
											OFFSET 0.021929 0.000081 0.001766
											CHANNELS 3 Xrotation Yrotation Zrotation
											End Site
											{
												OFFSET 0.017942 0.000066 0.001445
											}
										}
									}
								}
								JOINT Ring1.L
								{
									OFFSET 0.101612 0.000442 0.009630
									CHANNELS 3 Xrotation Yrotation Zrotation
									JOINT Ring2.L
									{
										OFFSET 0.028906 0.000107 0.002327
										CHANNELS 3 Xrotation Yrotation Zrotation
										JOINT Ring3.L
										{
											OFFSET 0.019935 0.000074 0.001605
											CHANNELS 3 Xrotation Yrotation Zrotation
											End Site
											{
												OFFSET 0.016945 0.000063 0.001364
											}
										}
									}
								}
								JOINT Pinky1.L
								{
									OFFSET 0.085612 0.000442 0.009630
									CHANNELS 3 Xrotation Yrotation Zrotation
									JOINT Pinky2.L
									{
										OFFSET 0.023922 0.000088 0.001926
										CHANNELS 3 Xrotation Yrotation Zrotation
										JOINT Pinky3.L
										{
											OFFSET 0.016945 0.000063 0.001364
											CHANNELS 3 Xrotation Yrotation Zrotation
											End Site
											{
												OFFSET 0.013955 0.000052 0.001124
											}
										}
									}
								}
							}
						}
					}
				}
				JOINT Clavicle.R
				{
					OFFSET -0.048075 0.011205 0.086354
					CHANNELS 3 Xrotation Yrotation Zrotation
					JOINT UpperArm.R
					{
						OFFSET -0.109879 0.009692 0.054398
						CHANNELS 3 Xrotation Yrotation Zrotation
						JOINT ForeArm.R
						{
							OFFSET -0.288861 0.027374 -0.040143
							CHANNELS 3 Xrotation Yrotation Zrotation
							JOINT Hand.R
							{
								OFFSET -0.270404 0.014480 -0.005348
								CHANNELS 3 Xrotation Yrotation Zrotation
								JOINT Thumb1.R
								{
									OFFSET -0.154805 0.006415 -0.002369
									CHANNELS 3 Xrotation Yrotation Zrotation
									JOINT Thumb2.R
									{
										OFFSET -0.029951 0.001604 -0.000592
										CHANNELS 3 Xrotation Yrotation Zrotation
										End Site
										{
											OFFSET -0.024959 0.001337 -0.000494
										}
									}
								}
								JOINT Index1.R
								{
									OFFSET -0.137805 0.006415 -0.002369
									CHANNELS 3 Xrotation Yrotation Zrotation
									JOINT Index2.R
									{
										OFFSET -0.029951 0.001604 -0.000592
										CHANNELS 3 Xrotation Yrotation Zrotation
										JOINT Index3.R
										{
											OFFSET -0.021964 0.001176 -0.000434
											CHANNELS 3 Xrotation Yrotation Zrotation
											End Site
											{
												OFFSET -0.017971 0.000962 -0.000355
											}
										}
									}
								}
								JOINT Middle1.R
								{
									OFFSET -0.119805 0.006415 -0.002369
									CHANNELS 3 Xrotation Yrotation Zrotation
									JOINT Middle2.R
									{
										OFFSET -0.030950 0.001657 -0.000612
										CHANNELS 3 Xrotation Yrotation Zrotation
										JOINT Middle3.R
										{
											OFFSET -0.021964 0.001176 -0.000434
											CHANNELS 3 Xrotation Yrotation Zrotation
											End Site
											{
												OFFSET -0.017971 0.000962 -0.000355
											}
										}
									}
								}
								JOINT Ring1.R
								{
									OFFSET -0.101805 0.006415 -0.002369
									CHANNELS 3 Xrotation Yrotation Zrotation
									JOINT Ring2.R
									{
										OFFSET -0.028953 0.001550 -0.000573
										CHANNELS 3 Xrotation Yrotation Zrotation
										JOINT Ring3.R
										{
											OFFSET -0.019967 0.001069 -0.000395
											CHANNELS 3 Xrotation Yrotation Zrotation
											End Site
											{
												OFFSET -0.016972 0.000909 -0.000336
											}
										}
									}
								}
								JOINT Pinky1.R
								{
									OFFSET -0.085805 0.006415 -0.002369
									CHANNELS 3 Xrotation Yrotation Zrotation
									JOINT Pinky2.R
									{
										OFFSET -0.023961 0.001283 -0.000474
										CHANNELS 3 Xrotation Yrotation Zrotation
										JOINT Pinky3.R
										{
											OFFSET -0.016972 0.000909 -0.000336
											CHANNELS 3 Xrotation Yrotation Zrotation
											End Site
											{
												OFFSET -0.013977 0.000748 -0.000276
											}
										}
									}
								}
							}
						}
					}
				}
			}
		}
	}
}
MOTION
Frames: 4
Frame Time: 0.03333333
0.001874 -0.034192 1.056753 -3.507337 0.202049 2.259346 3.735286 -3.793639 4.077299 2.138592 2.239340 -6.646884 -7.796405 -1.445050 10.514658 -0.304903 -1.969887 -1.387266 0.119167 3.293961 -2.967250 9.305136 0.299034 3.439363 -10.309077 0.134721 -7.898909 -0.617138 -1.434851 0.624614 1.286947 1.652738 2.023596 2.706130 -1.551583 -2.085917 0.291914 0.781975 -0.332225 9.084314 1.419751 0.942136 1.047206 -2.486313 1.722162 0.326248 20.471163 -1.051058 27.103832 43.620481 -25.734957 18.790200 -3.029144 -26.769189 -1.805054 3.523986 -10.846126 0.000000 0.000000 0.000000 0.000000 0.000000 0.000000 0.000000 0.000000 0.000000 0.000000 0.000000 0.000000 0.000000 0.000000 0.000000 0.000000 0.000000 0.000000 0.000000 0.000000 0.000000 0.000000 0.000000 0.000000 0.000000 0.000000 0.000000 0.000000 0.000000 0.000000 0.000000 0.000000 0.000000 0.000000 0.000000 0.000000 0.000000 0.000000 0.000000 0.000000 0.000000 0.000000 1.817615 -20.140299 5.932328 28.332339 -45.375922 24.710225 12.566141 2.346236 30.357262 -3.894130 -3.368148 7.928032 0.000000 0.000000 0.000000 0.000000 0.000000 0.000000 0.000000 0.000000 0.000000 0.000000 0.000000 0.000000 0.000000 0.000000 0.000000 0.000000 0.000000 0.000000 0.000000 0.000000 0.000000 0.000000 0.000000 0.000000 0.000000 0.000000 0.000000 0.000000 0.000000 0.000000 0.000000 0.000000 0.000000 0.000000 0.000000 0.000000 0.000000 0.000000 0.000000 0.000000 0.000000 0.000000
0.002159 -0.034667 1.056773 -3.533063 0.222333 2.219068 3.772531 -3.810170 4.090572 2.083052 2.185451 -6.638477 -7.777423 -1.408338 10.538683 -0.303298 -1.991161 -1.389189 0.106176 3.219697 -2.917163 9.336626 0.343026 3.493497 -10.316572 0.197589 -7.921216 -0.608680 -1.441243 0.639064 1.315638 1.629574 2.006324 2.734162 -1.549456 -2.089299 0.313784 0.765269 -0.349424 9.029281 1.425344 0.960009 0.977904 -2.425942 1.648351 0.354831 20.415170 -1.076871 27.123108 43.632946 -25.780369 18.786218 -3.075856 -26.769081 -1.742865 3.502535 -10.872586 0.000000 0.000000 0.000000 0.000000 0.000000 0.000000 0.000000 0.000000 0.000000 0.000000 0.000000 0.000000 0.000000 0.000000 0.000000 0.000000 0.000000 0.000000 0.000000 0.000000 0.000000 0.000000 0.000000 0.000000 0.000000 0.000000 0.000000 0.000000 0.000000 0.000000 0.000000 0.000000 0.000000 0.000000 0.000000 0.000000 0.000000 0.000000 0.000000 0.000000 0.000000 0.000000 1.807826 -20.137634 5.998002 28.310187 -45.400918 24.798838 12.527815 2.347005 30.278053 -3.905470 -3.328936 7.942932 0.000000 0.000000 0.000000 0.000000 0.000000 0.000000 0.000000 0.000000 0.000000 0.000000 0.000000 0.000000 0.000000 0.000000 0.000000 0.000000 0.000000 0.000000 0.000000 0.000000 0.000000 0.000000 0.000000 0.000000 0.000000 0.000000 0.000000 0.000000 0.000000 0.000000 0.000000 0.000000 0.000000 0.000000 0.000000 0.000000 0.000000 0.000000 0.000000 0.000000 0.000000 0.000000
0.003138 -0.034800 1.056748 -3.518241 0.210194 2.125441 3.782595 -3.844594 4.137410 2.023548 2.174224 -6.621320 -7.720620 -1.345033 10.530266 -0.293309 -2.019900 -1.394976 0.052107 3.177512 -2.899902 9.357154 0.349308 3.493073 -10.376731 0.246367 -7.864094 -0.588131 -1.455884 0.648702 1.357230 1.623430 2.009764 2.812939 -1.553322 -2.103544 0.278564 0.753436 -0.353550 8.945579 1.413739 0.965602 0.892455 -2.365421 1.538965 0.375291 20.379132 -1.116304 27.109174 43.556800 -25.750103 18.786034 -3.067205 -26.781305 -1.659116 3.405520 -10.904349 0.000000 0.000000 0.000000 0.000000 0.000000 0.000000 0.000000 0.000000 0.000000 0.000000 0.000000 0.000000 0.000000 0.000000 0.000000 0.000000 0.000000 0.000000 0.000000 0.000000 0.000000 0.000000 0.000000 0.000000 0.000000 0.000000 0.000000 0.000000 0.000000 0.000000 0.000000 0.000000 0.000000 0.000000 0.000000 0.000000 0.000000 0.000000 0.000000 0.000000 0.000000 0.000000 1.796532 -20.176733 6.068973 28.287541 -45.393986 24.833612 12.449225 2.306776 30.365996 -3.984156 -3.245909 7.914704 0.000000 0.000000 0.000000 0.000000 0.000000 0.000000 0.000000 0.000000 0.000000 0.000000 0.000000 0.000000 0.000000 0.000000 0.000000 0.000000 0.000000 0.000000 0.000000 0.000000 0.000000 0.000000 0.000000 0.000000 0.000000 0.000000 0.000000 0.000000 0.000000 0.000000 0.000000 0.000000 0.000000 0.000000 0.000000 0.000000 0.000000 0.000000 0.000000 0.000000 0.000000 0.000000
0.003095 -0.035071 1.056709 -3.517391 0.236928 2.096482 3.804278 -3.906614 4.205788 1.958536 2.220107 -6.529252 -7.719722 -1.281546 10.440513 -0.287431 -2.009660 -1.393135 -0.000545 3.178198 -2.891492 9.414989 0.289399 3.447819 -10.392127 0.247985 -7.791938 -0.581929 -1.462412 0.658031 1.384598 1.620133 1.999984 2.887915 -1.579359 -2.120537 0.249835 0.745988 -0.354591 8.914598 1.385335 0.937929 0.840251 -2.378090 1.486680 0.404756 20.411462 -1.184579 27.093359 43.474455 -25.668432 18.798197 -3.102102 -26.943464 -1.560154 3.355796 -10.947049 0.000000 0.000000 0.000000 0.000000 0.000000 0.000000 0.000000 0.000000 0.000000 0.000000 0.000000 0.000000 0.000000 0.000000 0.000000 0.000000 0.000000 0.000000 0.000000 0.000000 0.000000 0.000000 0.000000 0.000000 0.000000 0.000000 0.000000 0.000000 0.000000 0.000000 0.000000 0.000000 0.000000 0.000000 0.000000 0.000000 0.000000 0.000000 0.000000 0.000000 0.000000 0.000000 1.827022 -20.260375 6.141029 28.167539 -45.314903 24.737939 12.404642 2.339476 30.452573 -3.918295 -3.231156 7.901105 0.000000 0.000000 0.000000 0.000000 0.000000 0.000000 0.000000 0.000000 0.000000 0.000000 0.000000 0.000000 0.000000 0.000000 0.000000 0.000000 0.000000 0.000000 0.000000 0.000000 0.000000 0.000000 0.000000 0.000000 0.000000 0.000000 0.000000 0.000000 0.000000 0.000000 0.000000 0.000000 0.000000 0.000000 0.000000 0.000000 0.000000 0.000000 0.000000 0.000000 0.000000 0.000000
